<svg width="26" height="27" viewBox="0 0 26 27" fill="none" xmlns="http://www.w3.org/2000/svg">
<path fill-rule="evenodd" clip-rule="evenodd" d="M2.62625 6.89187L2.75981 6.74162C3.24931 6.22974 3.97857 5.97363 4.94689 5.97363H21.542C22.4546 5.97363 23.1558 6.19635 23.6456 6.64144L23.6623 6.65814C23.7625 6.74729 23.863 6.85281 23.9628 6.97535C23.9628 6.9867 23.9685 6.99772 23.9795 7.00874L23.9962 7.02544C24.3638 7.48189 24.5472 8.12733 24.5472 8.96209V18.4116C24.5361 20.4151 23.5344 21.4168 21.542 21.4168H4.94689C2.95448 21.4058 1.95844 20.404 1.95844 18.4116V8.96209C1.95844 8.06054 2.18115 7.37036 2.62625 6.89187ZM22.093 7.60977C21.926 7.56536 21.7424 7.54833 21.5423 7.55969H4.94689C4.82435 7.54867 4.70748 7.55401 4.59629 7.57638L13.1944 16.2913L22.093 7.60977ZM3.54449 8.77844C3.53347 8.8342 3.53347 8.89531 3.54449 8.96209V18.4116C3.54449 19.3579 4.01196 19.8307 4.94689 19.8307H21.542C22.488 19.8307 22.9611 19.3579 22.9611 18.4116V8.97879L13.7453 17.9775C13.5784 18.1335 13.3894 18.2113 13.178 18.2113C12.9553 18.2003 12.766 18.1221 12.6104 17.9775L3.54449 8.77844Z" fill="black"/>
<path fill-rule="evenodd" clip-rule="evenodd" d="M2.62628 6.89147C2.64865 6.85808 2.67637 6.82469 2.70976 6.7913C2.72111 6.76892 2.73747 6.75223 2.75984 6.74121L2.62628 6.89147Z" fill="black"/>
</svg>
