<svg width="45" height="45" viewBox="0 0 45 45" fill="none" xmlns="http://www.w3.org/2000/svg">
<path d="M35.1104 10.0132C35.1119 10.0167 35.1126 10.0205 35.1126 10.0243V10.0247V16.7544C35.1126 16.7622 35.1095 16.7697 35.1041 16.7751C35.0986 16.7805 35.0913 16.7835 35.0837 16.7835H29.481C28.5499 16.7835 27.7952 17.5383 27.7952 18.4693V20.915V21.3714H28.2517H35.0837C35.0913 21.3714 35.0986 21.3745 35.1041 21.3799C35.1095 21.3853 35.1126 21.3928 35.1126 21.4006V28.2371C35.1126 28.2449 35.1095 28.2524 35.1041 28.2578C35.0986 28.2633 35.0913 28.2663 35.0837 28.2663H28.737H28.2805V28.7228V43.7245C28.2805 43.7323 28.2774 43.7398 28.272 43.7452C28.2666 43.7506 28.2592 43.7537 28.2517 43.7537H21.7928C21.7853 43.7537 21.7779 43.7506 21.7725 43.7452C21.7671 43.7398 21.764 43.7323 21.764 43.7245V28.7223V28.2658H21.3075H16.8819C16.8743 28.2658 16.867 28.2628 16.8615 28.2573C16.8561 28.2519 16.853 28.2444 16.853 28.2366V21.4001C16.853 21.3923 16.8561 21.3849 16.8615 21.3794L16.5386 21.0567L16.8615 21.3794C16.867 21.374 16.8743 21.371 16.8819 21.371H21.3075H21.764V20.9145L21.764 18.1431C21.764 18.1431 21.764 18.143 21.764 18.143C21.764 18.1402 21.7643 18.1374 21.765 18.1347L21.7775 18.0824L21.7775 18.0286C21.7792 16.0673 21.9943 14.0636 22.9413 12.5541C23.861 11.0882 25.5254 10.0073 28.637 9.9975L28.6582 9.99744L28.6777 9.99556H28.6793H35.0842C35.0879 9.99556 35.0916 9.99629 35.095 9.99771C35.0984 9.99913 35.1016 10.0012 35.1042 10.0039C35.1069 10.0065 35.109 10.0097 35.1104 10.0132ZM35.1104 10.0132L35.5319 9.83909L35.1104 10.0132C35.1104 10.0132 35.1104 10.0132 35.1104 10.0132ZM35.5691 10.0247C35.5692 9.96097 35.5567 9.89783 35.5323 9.83891C35.508 9.77999 35.4723 9.72645 35.4273 9.68135C35.3822 9.63624 35.3288 9.60046 35.2699 9.57605C35.211 9.55164 35.1479 9.53907 35.0842 9.53907H28.6793C28.6647 9.53897 28.6501 9.53962 28.6356 9.54101C22.169 9.56141 21.3245 14.0794 21.3211 18.0282L35.5691 10.0247Z" fill="black" stroke="black" stroke-width="0.912982"/>
<rect x="0.5" y="0.5" width="44" height="44" stroke="black"/>
</svg>
