<svg width="45" height="45" viewBox="0 0 45 45" fill="none" xmlns="http://www.w3.org/2000/svg">
<path d="M29.4788 14.4225C29.1754 14.4225 28.8789 14.5124 28.6266 14.681C28.3744 14.8495 28.1778 15.0891 28.0617 15.3693C27.9456 15.6496 27.9153 15.958 27.9744 16.2555C28.0336 16.5531 28.1797 16.8264 28.3942 17.0409C28.6087 17.2554 28.882 17.4015 29.1796 17.4606C29.4771 17.5198 29.7855 17.4894 30.0658 17.3734C30.346 17.2573 30.5856 17.0607 30.7541 16.8084C30.9226 16.5562 31.0126 16.2597 31.0126 15.9563C31.0126 15.5495 30.851 15.1594 30.5634 14.8717C30.2757 14.5841 29.8856 14.4225 29.4788 14.4225ZM35.3584 17.5157C35.3335 16.4552 35.1349 15.4059 34.7704 14.4097C34.4454 13.5573 33.9396 12.7855 33.2878 12.1473C32.6548 11.4922 31.8812 10.9895 31.0254 10.6774C30.0318 10.3019 28.9814 10.0987 27.9194 10.0767C26.5646 10 26.13 10 22.6533 10C19.1767 10 18.7421 10 17.3873 10.0767C16.3253 10.0987 15.2749 10.3019 14.2813 10.6774C13.4271 10.9927 12.6541 11.4949 12.0189 12.1473C11.3638 12.7803 10.8611 13.5539 10.549 14.4097C10.1734 15.4033 9.97027 16.4537 9.94827 17.5157C9.87158 18.8705 9.87158 19.3051 9.87158 22.7818C9.87158 26.2584 9.87158 26.693 9.94827 28.0478C9.97027 29.1098 10.1734 30.1602 10.549 31.1538C10.8611 32.0096 11.3638 32.7832 12.0189 33.4162C12.6541 34.0686 13.4271 34.5708 14.2813 34.8861C15.2749 35.2616 16.3253 35.4648 17.3873 35.4868C18.7421 35.5635 19.1767 35.5635 22.6533 35.5635C26.13 35.5635 26.5646 35.5635 27.9194 35.4868C28.9814 35.4648 30.0318 35.2616 31.0254 34.8861C31.8812 34.574 32.6548 34.0713 33.2878 33.4162C33.9425 32.7804 34.4488 32.0079 34.7704 31.1538C35.1349 30.1576 35.3335 29.1083 35.3584 28.0478C35.3584 26.693 35.4351 26.2584 35.4351 22.7818C35.4351 19.3051 35.4351 18.8705 35.3584 17.5157ZM33.0577 27.8945C33.0484 28.7058 32.9014 29.5097 32.6231 30.2719C32.419 30.8281 32.0912 31.3307 31.6645 31.7418C31.2499 32.1642 30.7483 32.4913 30.1946 32.7004C29.4324 32.9787 28.6285 33.1257 27.8172 33.135C26.539 33.1989 26.0661 33.2117 22.7045 33.2117C19.3429 33.2117 18.8699 33.2117 17.5918 33.135C16.7493 33.1507 15.9104 33.021 15.1121 32.7515C14.5827 32.5318 14.1041 32.2055 13.7061 31.7929C13.2819 31.3823 12.9582 30.8792 12.7603 30.323C12.4482 29.5499 12.2751 28.7277 12.249 27.8945C12.249 26.6163 12.1723 26.1434 12.1723 22.7818C12.1723 19.4202 12.1723 18.9472 12.249 17.6691C12.2547 16.8396 12.4061 16.0176 12.6963 15.2405C12.9214 14.701 13.2668 14.2201 13.7061 13.8345C14.0944 13.395 14.5744 13.046 15.1121 12.812C15.8912 12.5308 16.7124 12.3839 17.5406 12.3774C18.8188 12.3774 19.2917 12.3007 22.6533 12.3007C26.0149 12.3007 26.4879 12.3007 27.766 12.3774C28.5774 12.3867 29.3813 12.5337 30.1434 12.812C30.7243 13.0276 31.2456 13.378 31.6645 13.8345C32.0833 14.2272 32.4106 14.7072 32.6231 15.2405C32.9072 16.0188 33.0542 16.8405 33.0577 17.6691C33.1216 18.9472 33.1344 19.4202 33.1344 22.7818C33.1344 26.1434 33.1216 26.6163 33.0577 27.8945ZM22.6533 16.2247C21.357 16.2272 20.0905 16.614 19.0139 17.336C17.9373 18.058 17.0989 19.083 16.6045 20.2813C16.1102 21.4797 15.9822 22.7977 16.2366 24.0688C16.4911 25.3399 17.1166 26.507 18.0341 27.4228C18.9516 28.3385 20.12 28.9617 21.3916 29.2137C22.6632 29.4657 23.9809 29.3351 25.1783 28.8384C26.3757 28.3418 27.399 27.5013 28.119 26.4233C28.8389 25.3453 29.2232 24.0781 29.2232 22.7818C29.2248 21.9191 29.056 21.0647 28.7262 20.2675C28.3965 19.4704 27.9125 18.7463 27.3019 18.1369C26.6913 17.5275 25.9663 17.0449 25.1685 16.7167C24.3707 16.3885 23.516 16.2213 22.6533 16.2247ZM22.6533 27.0381C21.8115 27.0381 20.9886 26.7884 20.2886 26.3208C19.5887 25.8531 19.0432 25.1883 18.721 24.4106C18.3989 23.6328 18.3146 22.777 18.4788 21.9514C18.643 21.1257 19.0484 20.3673 19.6437 19.7721C20.2389 19.1768 20.9973 18.7714 21.823 18.6072C22.6486 18.443 23.5044 18.5273 24.2822 18.8494C25.0599 19.1716 25.7246 19.7171 26.1923 20.4171C26.66 21.117 26.9097 21.9399 26.9097 22.7818C26.9097 23.3407 26.7996 23.8942 26.5857 24.4106C26.3718 24.927 26.0582 25.3962 25.663 25.7914C25.2678 26.1867 24.7986 26.5002 24.2822 26.7141C23.7658 26.928 23.2123 27.0381 22.6533 27.0381Z" fill="black"/>
<rect x="0.5" y="0.5" width="44" height="44" stroke="black"/>
</svg>
