<svg width="19" height="25" viewBox="0 0 19 25" fill="none" xmlns="http://www.w3.org/2000/svg">
<path d="M9.192 24.5C8.928 24.5 8.688 24.38 8.52 24.188C7.656 23.204 0 14.492 0 9.692C0 4.628 4.128 0.5 9.192 0.5C14.256 0.5 18.384 4.628 18.384 9.692C18.384 14.468 10.728 23.204 9.864 24.188C9.696 24.38 9.456 24.5 9.192 24.5ZM9.192 2.324C5.136 2.324 1.824 5.636 1.824 9.692C1.824 12.86 6.648 19.172 9.192 22.196C11.736 19.196 16.56 12.86 16.56 9.692C16.56 5.636 13.248 2.324 9.192 2.324Z" fill="black"/>
<path d="M9.19199 14.4201C6.64798 14.4201 4.58398 12.3561 4.58398 9.8121C4.58398 7.2681 6.64798 5.2041 9.19199 5.2041C11.736 5.2041 13.8 7.2681 13.8 9.8121C13.8 12.3561 11.736 14.4201 9.19199 14.4201ZM9.19199 7.0281C7.65599 7.0281 6.40799 8.2761 6.40799 9.8121C6.40799 11.3481 7.65599 12.5961 9.19199 12.5961C10.728 12.5961 11.976 11.3481 11.976 9.8121C11.976 8.2761 10.728 7.0281 9.19199 7.0281Z" fill="black"/>
</svg>
