<svg width="31" height="31" viewBox="0 0 31 31" fill="none" xmlns="http://www.w3.org/2000/svg">
<g clip-path="url(#clip0_404_6269)">
<path d="M11.6983 28.1722C12.3981 28.1722 12.9655 27.6048 12.9655 26.9049C12.9655 26.2051 12.3981 25.6377 11.6983 25.6377C10.9984 25.6377 10.431 26.2051 10.431 26.9049C10.431 27.6048 10.9984 28.1722 11.6983 28.1722Z" stroke="black" stroke-width="2.53448" stroke-linecap="round" stroke-linejoin="round"/>
<path d="M25.638 28.1722C26.3378 28.1722 26.9052 27.6048 26.9052 26.9049C26.9052 26.2051 26.3378 25.6377 25.638 25.6377C24.9381 25.6377 24.3707 26.2051 24.3707 26.9049C24.3707 27.6048 24.9381 28.1722 25.638 28.1722Z" stroke="black" stroke-width="2.53448" stroke-linecap="round" stroke-linejoin="round"/>
<path d="M1.5603 1.56055H6.62927L10.0255 18.5289C10.1414 19.1123 10.4588 19.6364 10.9221 20.0094C11.3855 20.3824 11.9652 20.5806 12.56 20.5692H24.8775C25.4723 20.5806 26.052 20.3824 26.5154 20.0094C26.9787 19.6364 27.2961 19.1123 27.412 18.5289L29.4396 7.89675H7.89651" stroke="black" stroke-width="2.53448" stroke-linecap="round" stroke-linejoin="round"/>
</g>
<defs>
<clipPath id="clip0_404_6269">
<rect width="30.4138" height="30.4138" fill="white" transform="translate(0.293091 0.292969)"/>
</clipPath>
</defs>
</svg>
