<svg width="45" height="45" viewBox="0 0 45 45" fill="none" xmlns="http://www.w3.org/2000/svg">
<path d="M36.3013 13.6713C35.272 14.1179 34.1833 14.4131 33.0694 14.5478C34.2446 13.8457 35.1253 12.7411 35.5481 11.4391C34.4437 12.0965 33.2348 12.5597 31.9738 12.8085C31.1309 11.8945 30.0086 11.2861 28.7827 11.0787C27.5568 10.8713 26.2967 11.0766 25.2001 11.6625C24.1035 12.2484 23.2324 13.1818 22.7233 14.3161C22.2143 15.4504 22.0962 16.7216 22.3875 17.9304C20.1545 17.8174 17.9702 17.236 15.9765 16.2238C13.9828 15.2116 12.2244 13.7914 10.8154 12.0553C10.3212 12.9183 10.0616 13.8956 10.0622 14.8901C10.0605 15.8137 10.2871 16.7233 10.722 17.5381C11.1568 18.3529 11.7864 19.0475 12.5547 19.56C11.6617 19.5357 10.7879 19.2961 10.0074 18.8616V18.9301C10.0141 20.2241 10.4676 21.4761 11.2911 22.4742C12.1146 23.4724 13.2576 24.1555 14.5267 24.408C14.0382 24.5566 13.5309 24.635 13.0203 24.6408C12.6668 24.6367 12.3142 24.6046 11.9658 24.5449C12.3272 25.658 13.0266 26.6308 13.9667 27.3279C14.9068 28.025 16.0408 28.4117 17.2109 28.4342C15.235 29.9889 12.7955 30.8375 10.2813 30.8445C9.82357 30.846 9.36617 30.8186 8.91187 30.7623C11.4788 32.4197 14.4703 33.2996 17.5259 33.2959C19.6344 33.3177 21.7262 32.9193 23.6791 32.1237C25.6319 31.3281 27.4066 30.1514 28.8996 28.6622C30.3926 27.1731 31.5739 25.4014 32.3744 23.4506C33.175 21.4998 33.5789 19.409 33.5624 17.3004C33.5624 17.0676 33.5624 16.8211 33.5624 16.5746C34.637 15.7732 35.5638 14.7907 36.3013 13.6713Z" fill="black"/>
<rect x="0.5" y="0.5" width="44" height="44" stroke="black"/>
</svg>
