<svg width="24" height="24" viewBox="0 0 24 24" fill="none" xmlns="http://www.w3.org/2000/svg">
<g clip-path="url(#clip0_75_630)">
<path d="M15.57 16.5261C13.9076 17.0681 12.3968 17.9951 11.1604 19.2315C9.92403 20.4678 8.99707 21.9787 8.45499 23.6411C8.42088 23.7446 8.35496 23.8348 8.26662 23.8987C8.17828 23.9626 8.07202 23.997 7.96299 23.997C7.85395 23.997 7.7477 23.9626 7.65936 23.8987C7.57102 23.8348 7.5051 23.7446 7.47099 23.6411C6.93307 21.9776 6.00766 20.4658 4.77099 19.2301C3.53541 17.9942 2.02442 17.0689 0.361988 16.5301C0.257418 16.497 0.166101 16.4315 0.101285 16.343C0.0364687 16.2545 0.00152588 16.1477 0.00152588 16.0381C0.00152588 15.9284 0.0364687 15.8216 0.101285 15.7331C0.166101 15.6446 0.257418 15.5791 0.361988 15.5461C2.02463 15.0077 3.53572 14.0823 4.77099 12.8461C6.0083 11.6108 6.93381 10.0988 7.47099 8.43505C7.5051 8.33149 7.57102 8.24133 7.65936 8.17742C7.7477 8.11351 7.85395 8.0791 7.96299 8.0791C8.07202 8.0791 8.17828 8.11351 8.26662 8.17742C8.35496 8.24133 8.42088 8.33149 8.45499 8.43505C8.99432 10.0977 9.91978 11.609 11.1556 12.8452C12.3914 14.0814 13.9025 15.0073 15.565 15.5471C15.6675 15.5818 15.7565 15.6479 15.8195 15.7358C15.8826 15.8238 15.9165 15.9293 15.9165 16.0376C15.9165 16.1458 15.8826 16.2513 15.8195 16.3393C15.7565 16.4272 15.6675 16.4933 15.565 16.5281L15.57 16.5261Z" fill="black"/>
<path d="M23.766 5.01412C22.785 5.33474 21.8935 5.88214 21.1637 6.61188C20.434 7.34163 19.8866 8.23317 19.566 9.21413C19.5494 9.27855 19.5118 9.33562 19.4592 9.37637C19.4067 9.41711 19.342 9.43923 19.2755 9.43923C19.209 9.43923 19.1443 9.41711 19.0917 9.37637C19.0391 9.33562 19.0016 9.27855 18.985 9.21413C18.6634 8.23371 18.1156 7.34269 17.386 6.61308C16.6564 5.88347 15.7654 5.33573 14.785 5.01412C14.7201 4.99787 14.6625 4.9604 14.6214 4.90768C14.5803 4.85496 14.5579 4.79 14.5579 4.72312C14.5579 4.65625 14.5803 4.59129 14.6214 4.53857C14.6625 4.48585 14.7201 4.44838 14.785 4.43213C15.768 4.11313 16.661 3.56467 17.39 2.83213C18.1171 2.1002 18.6606 1.20648 18.976 0.224125C18.9926 0.159705 19.0301 0.102633 19.0827 0.0618848C19.1353 0.0211364 19.2 -0.000976562 19.2665 -0.000976562C19.333 -0.000976562 19.3977 0.0211364 19.4502 0.0618848C19.5028 0.102633 19.5404 0.159705 19.557 0.224125C19.8774 1.20736 20.4257 2.10097 21.157 2.83213C21.8875 3.56523 22.7822 4.1137 23.767 4.43213C23.8319 4.44838 23.8894 4.48585 23.9306 4.53857C23.9717 4.59129 23.9941 4.65625 23.9941 4.72312C23.9941 4.79 23.9717 4.85496 23.9306 4.90768C23.8894 4.9604 23.8309 4.99787 23.766 5.01412Z" fill="black"/>
</g>
<defs>
<clipPath id="clip0_75_630">
<rect width="23.993" height="23.998" fill="white"/>
</clipPath>
</defs>
</svg>
