<svg width="25" height="24" viewBox="0 0 25 24" fill="none" xmlns="http://www.w3.org/2000/svg">
<g clip-path="url(#clip0_39_196)">
<g clip-path="url(#clip1_39_196)">
<path d="M16.07 16.526C14.4076 17.0681 12.8968 17.995 11.6604 19.2314C10.424 20.4678 9.49707 21.9786 8.95499 23.641C8.92088 23.7446 8.85496 23.8347 8.76662 23.8986C8.67828 23.9625 8.57202 23.9969 8.46299 23.9969C8.35395 23.9969 8.2477 23.9625 8.15936 23.8986C8.07102 23.8347 8.0051 23.7446 7.97099 23.641C7.43307 21.9776 6.50766 20.4657 5.27099 19.23C4.03541 17.9941 2.52442 17.0688 0.861988 16.53C0.757418 16.4969 0.666101 16.4314 0.601285 16.3429C0.536469 16.2545 0.501526 16.1477 0.501526 16.038C0.501526 15.9283 0.536469 15.8215 0.601285 15.733C0.666101 15.6446 0.757418 15.579 0.861988 15.546C2.52463 15.0076 4.03572 14.0822 5.27099 12.846C6.5083 11.6108 7.43381 10.0988 7.97099 8.43499C8.0051 8.33143 8.07102 8.24127 8.15936 8.17736C8.2477 8.11344 8.35395 8.07904 8.46299 8.07904C8.57202 8.07904 8.67828 8.11344 8.76662 8.17736C8.85496 8.24127 8.92088 8.33143 8.95499 8.43499C9.49432 10.0977 10.4198 11.609 11.6556 12.8451C12.8914 14.0813 14.4025 15.0072 16.065 15.547C16.1675 15.5818 16.2565 15.6478 16.3195 15.7358C16.3826 15.8238 16.4165 15.9293 16.4165 16.0375C16.4165 16.1457 16.3826 16.2512 16.3195 16.3392C16.2565 16.4272 16.1675 16.4932 16.065 16.528L16.07 16.526Z" fill="white"/>
<path d="M24.266 5.014C23.285 5.33462 22.3935 5.88201 21.6637 6.61176C20.934 7.34151 20.3866 8.23305 20.066 9.214C20.0494 9.27842 20.0118 9.33549 19.9592 9.37624C19.9067 9.41699 19.842 9.43911 19.7755 9.43911C19.709 9.43911 19.6443 9.41699 19.5917 9.37624C19.5391 9.33549 19.5016 9.27842 19.485 9.214C19.1634 8.23358 18.6156 7.34257 17.886 6.61296C17.1564 5.88335 16.2654 5.33561 15.285 5.014C15.2201 4.99775 15.1625 4.96028 15.1214 4.90756C15.0803 4.85483 15.0579 4.78988 15.0579 4.723C15.0579 4.65613 15.0803 4.59117 15.1214 4.53845C15.1625 4.48573 15.2201 4.44826 15.285 4.432C16.268 4.11301 17.161 3.56455 17.89 2.832C18.6171 2.10008 19.1606 1.20636 19.476 0.224003C19.4926 0.159583 19.5301 0.102511 19.5827 0.0617627C19.6353 0.0210144 19.7 -0.00109863 19.7665 -0.00109863C19.833 -0.00109863 19.8977 0.0210144 19.9502 0.0617627C20.0028 0.102511 20.0404 0.159583 20.057 0.224003C20.3774 1.20724 20.9257 2.10084 21.657 2.832C22.3875 3.5651 23.2822 4.11358 24.267 4.432C24.3319 4.44826 24.3894 4.48573 24.4306 4.53845C24.4717 4.59117 24.4941 4.65613 24.4941 4.723C24.4941 4.78988 24.4717 4.85483 24.4306 4.90756C24.3894 4.96028 24.3309 4.99775 24.266 5.014Z" fill="white"/>
</g>
</g>
<defs>
<clipPath id="clip0_39_196">
<rect width="24" height="24" fill="white" transform="translate(0.5)"/>
</clipPath>
<clipPath id="clip1_39_196">
<rect width="23.993" height="23.998" fill="white" transform="translate(0.5)"/>
</clipPath>
</defs>
</svg>
