<svg width="22" height="22" viewBox="0 0 22 22" fill="none" xmlns="http://www.w3.org/2000/svg">
<path d="M13.75 4.58301V6.41634" stroke="#8B909A" stroke-width="1.75" stroke-linecap="round" stroke-linejoin="round"/>
<path d="M13.75 4.58301V6.41634" stroke="#8B909A" stroke-width="1.75" stroke-linecap="round" stroke-linejoin="round"/>
<path d="M13.75 10.083V11.9163" stroke="#8B909A" stroke-width="1.75" stroke-linecap="round" stroke-linejoin="round"/>
<path d="M13.75 10.083V11.9163" stroke="#8B909A" stroke-width="1.75" stroke-linecap="round" stroke-linejoin="round"/>
<path d="M13.75 15.583V17.4163" stroke="#8B909A" stroke-width="1.75" stroke-linecap="round" stroke-linejoin="round"/>
<path d="M13.75 15.583V17.4163" stroke="#8B909A" stroke-width="1.75" stroke-linecap="round" stroke-linejoin="round"/>
<path d="M4.58333 4.58301H17.4167C18.4292 4.58301 19.25 5.40382 19.25 6.41634V9.16634C18.2375 9.16634 17.4167 9.98715 17.4167 10.9997C17.4167 12.0122 18.2375 12.833 19.25 12.833V15.583C19.25 16.5955 18.4292 17.4163 17.4167 17.4163H4.58333C3.57081 17.4163 2.75 16.5955 2.75 15.583V12.833C3.76252 12.833 4.58333 12.0122 4.58333 10.9997C4.58333 9.98715 3.76252 9.16634 2.75 9.16634V6.41634C2.75 5.40382 3.57081 4.58301 4.58333 4.58301" stroke="#8B909A" stroke-width="1.75" stroke-linecap="round" stroke-linejoin="round"/>
<path d="M4.58333 4.58301H17.4167C18.4292 4.58301 19.25 5.40382 19.25 6.41634V9.16634C18.2375 9.16634 17.4167 9.98715 17.4167 10.9997C17.4167 12.0122 18.2375 12.833 19.25 12.833V15.583C19.25 16.5955 18.4292 17.4163 17.4167 17.4163H4.58333C3.57081 17.4163 2.75 16.5955 2.75 15.583V12.833C3.76252 12.833 4.58333 12.0122 4.58333 10.9997C4.58333 9.98715 3.76252 9.16634 2.75 9.16634V6.41634C2.75 5.40382 3.57081 4.58301 4.58333 4.58301" stroke="#8B909A" stroke-width="1.75" stroke-linecap="round" stroke-linejoin="round"/>
</svg>
