<svg width="22" height="22" viewBox="0 0 22 22" fill="none" xmlns="http://www.w3.org/2000/svg">
<path d="M12.8334 2.75V6.41667C12.8334 6.92293 13.2438 7.33333 13.75 7.33333H17.4167" stroke="#8B909A" stroke-width="1.75" stroke-linecap="round" stroke-linejoin="round"/>
<path d="M12.8334 2.75V6.41667C12.8334 6.92293 13.2438 7.33333 13.75 7.33333H17.4167" stroke="#8B909A" stroke-width="1.75" stroke-linecap="round" stroke-linejoin="round"/>
<path fill-rule="evenodd" clip-rule="evenodd" d="M15.5833 19.25H6.41665C5.40412 19.25 4.58331 18.4292 4.58331 17.4167V4.58333C4.58331 3.57081 5.40412 2.75 6.41665 2.75H12.8333L17.4166 7.33333V17.4167C17.4166 18.4292 16.5958 19.25 15.5833 19.25Z" stroke="#8B909A" stroke-width="1.75" stroke-linecap="round" stroke-linejoin="round"/>
<path fill-rule="evenodd" clip-rule="evenodd" d="M15.5833 19.25H6.41665C5.40412 19.25 4.58331 18.4292 4.58331 17.4167V4.58333C4.58331 3.57081 5.40412 2.75 6.41665 2.75H12.8333L17.4166 7.33333V17.4167C17.4166 18.4292 16.5958 19.25 15.5833 19.25Z" stroke="#8B909A" stroke-width="1.75" stroke-linecap="round" stroke-linejoin="round"/>
<path d="M8.25 8.25033H9.16667" stroke="#8B909A" stroke-width="1.75" stroke-linecap="round" stroke-linejoin="round"/>
<path d="M8.25 8.25033H9.16667" stroke="#8B909A" stroke-width="1.75" stroke-linecap="round" stroke-linejoin="round"/>
<path d="M8.25 11.9163H13.75" stroke="#8B909A" stroke-width="1.75" stroke-linecap="round" stroke-linejoin="round"/>
<path d="M8.25 11.9163H13.75" stroke="#8B909A" stroke-width="1.75" stroke-linecap="round" stroke-linejoin="round"/>
<path d="M8.25 15.5833H13.75" stroke="#8B909A" stroke-width="1.75" stroke-linecap="round" stroke-linejoin="round"/>
<path d="M8.25 15.5833H13.75" stroke="#8B909A" stroke-width="1.75" stroke-linecap="round" stroke-linejoin="round"/>
</svg>
