<svg width="33" height="34" viewBox="0 0 33 34" fill="none" xmlns="http://www.w3.org/2000/svg">
<path d="M15.4535 33.3324C16.0827 33.3179 16.6866 33.0807 17.1583 32.6628C17.6299 32.2449 17.9389 31.6732 18.0307 31.0488H12.7764C12.8707 31.6901 13.1942 32.2753 13.6867 32.6953C14.1791 33.1154 14.807 33.3418 15.4535 33.3324Z" fill="#3692EB"/>
<path d="M30.2875 27.1726L29.9479 26.8722C28.9843 26.0114 28.141 25.0243 27.4406 23.9376C26.6756 22.4378 26.2171 20.7999 26.092 19.12V14.1723C26.088 13.5713 26.0345 12.9717 25.9322 12.3795C24.2401 12.0308 22.7202 11.1065 21.6298 9.7632C20.5394 8.41986 19.9455 6.73998 19.9486 5.00798V4.37699C18.9057 3.86238 17.7851 3.52397 16.6322 3.37543V2.11346C16.6322 1.75884 16.4917 1.41874 16.2416 1.16799C15.9915 0.917239 15.6523 0.776367 15.2986 0.776367C14.9449 0.776367 14.6057 0.917239 14.3557 1.16799C14.1056 1.41874 13.9651 1.75884 13.9651 2.11346V3.42551C11.3836 3.79063 9.02096 5.07984 7.31344 7.05511C5.60593 9.03039 4.66879 11.5584 4.67506 14.1723V19.12C4.54995 20.7999 4.09147 22.4378 3.32651 23.9376C2.63813 25.0216 1.80834 26.0085 0.859166 26.8722L0.519531 27.1726V29.997H30.2875V27.1726Z" fill="#3692EB"/>
<path d="M27.4404 10.0157C30.1989 10.0157 32.4351 7.77357 32.4351 5.00783C32.4351 2.24208 30.1989 0 27.4404 0C24.682 0 22.4458 2.24208 22.4458 5.00783C22.4458 7.77357 24.682 10.0157 27.4404 10.0157Z" fill="#FF4588"/>
</svg>
