<svg width="24" height="25" viewBox="0 0 24 25" fill="none" xmlns="http://www.w3.org/2000/svg">
<path d="M5.14286 0.5C3.77889 0.5 2.47078 1.04184 1.50631 2.00631C0.541835 2.97078 0 4.27889 0 5.64286V19.3571C0 20.7211 0.541835 22.0292 1.50631 22.9937C2.47078 23.9582 3.77889 24.5 5.14286 24.5H18.8571C20.2211 24.5 21.5292 23.9582 22.4937 22.9937C23.4582 22.0292 24 20.7211 24 19.3571V5.64286C24 4.27889 23.4582 2.97078 22.4937 2.00631C21.5292 1.04184 20.2211 0.5 18.8571 0.5H5.14286ZM6 11.6429H18C18.2273 11.6429 18.4453 11.7332 18.6061 11.8939C18.7668 12.0547 18.8571 12.2727 18.8571 12.5C18.8571 12.7273 18.7668 12.9453 18.6061 13.1061C18.4453 13.2668 18.2273 13.3571 18 13.3571H6C5.77267 13.3571 5.55465 13.2668 5.39391 13.1061C5.23316 12.9453 5.14286 12.7273 5.14286 12.5C5.14286 12.2727 5.23316 12.0547 5.39391 11.8939C5.55465 11.7332 5.77267 11.6429 6 11.6429Z" fill="#C4C4C4"/>
</svg>
