<svg width="24" height="17" viewBox="0 0 24 17" fill="none" xmlns="http://www.w3.org/2000/svg">
<path d="M17.1422 0.799988V7.6578H24V0.799988H17.1422ZM22.2844 5.94218H18.8578V2.51561H22.2844V5.94218ZM0 16.2312H6.85781V9.37343H0V16.2312ZM1.71562 11.0891H5.14219V14.5156H1.71562V11.0891ZM0 7.6578H6.85781V0.799988H0V7.6578ZM1.71562 2.51561H5.14219V5.94218H1.71562V2.51561ZM8.57344 7.6578H15.4313V0.799988H8.57344V7.6578ZM10.2844 2.51561H13.7109V5.94218H10.2844V2.51561ZM8.57344 16.2312H15.4313V9.37343H8.57344V16.2312ZM10.2844 11.0891H13.7109V14.5156H10.2844V11.0891ZM17.1422 16.2312H24V9.37343H17.1422V16.2312ZM18.8578 11.0891H22.2844V14.5156H18.8578V11.0891Z" fill="black"/>
</svg>
