<svg width="24" height="24" viewBox="0 0 24 24" fill="none" xmlns="http://www.w3.org/2000/svg">
<g clip-path="url(#clip0_65_2521)">
<path d="M8.99979 14.1429H1.71408C1.48675 14.1429 1.26873 14.2332 1.10798 14.3939C0.947239 14.5547 0.856934 14.7727 0.856934 15V22.2857C0.856934 22.513 0.947239 22.7311 1.10798 22.8918C1.26873 23.0526 1.48675 23.1429 1.71408 23.1429H8.99979C9.22712 23.1429 9.44514 23.0526 9.60588 22.8918C9.76663 22.7311 9.85693 22.513 9.85693 22.2857V15C9.85693 14.7727 9.76663 14.5547 9.60588 14.3939C9.44514 14.2332 9.22712 14.1429 8.99979 14.1429ZM22.2855 14.1429H14.9998C14.7725 14.1429 14.5544 14.2332 14.3937 14.3939C14.233 14.5547 14.1426 14.7727 14.1426 15V22.2857C14.1426 22.513 14.233 22.7311 14.3937 22.8918C14.5544 23.0526 14.7725 23.1429 14.9998 23.1429H22.2855C22.5128 23.1429 22.7309 23.0526 22.8916 22.8918C23.0523 22.7311 23.1426 22.513 23.1426 22.2857V15C23.1426 14.7727 23.0523 14.5547 22.8916 14.3939C22.7309 14.2332 22.5128 14.1429 22.2855 14.1429ZM15.6512 0.857147H8.36551C8.13818 0.857147 7.92016 0.947453 7.75941 1.1082C7.59867 1.26894 7.50836 1.48696 7.50836 1.71429V9C7.50836 9.22733 7.59867 9.44535 7.75941 9.6061C7.92016 9.76684 8.13818 9.85715 8.36551 9.85715H15.6512C15.8785 9.85715 16.0966 9.76684 16.2573 9.6061C16.4181 9.44535 16.5084 9.22733 16.5084 9V1.71429C16.5084 1.48696 16.4181 1.26894 16.2573 1.1082C16.0966 0.947453 15.8785 0.857147 15.6512 0.857147Z" stroke="black" stroke-linecap="round" stroke-linejoin="round"/>
</g>
<defs>
<clipPath id="clip0_65_2521">
<rect width="24" height="24" fill="white"/>
</clipPath>
</defs>
</svg>
