<svg width="24" height="25" viewBox="0 0 24 25" fill="none" xmlns="http://www.w3.org/2000/svg">
<g clip-path="url(#clip0_162_880)">
<path d="M19.2002 17.6422H12.3424L12.3424 24.5H19.2002L19.2002 17.6422ZM14.058 22.7844L14.058 19.3578H17.4846V22.7844H14.058ZM3.76894 0.5L3.76894 7.35781L10.6268 7.35781L10.6268 0.5L3.76894 0.5ZM8.91113 2.21562L8.91113 5.64219H5.48457L5.48457 2.21562L8.91113 2.21562ZM12.3424 0.5L12.3424 7.35781L19.2002 7.35781V0.5L12.3424 0.5ZM17.4846 2.21562V5.64219L14.058 5.64219V2.21562L17.4846 2.21562ZM12.3424 9.07344L12.3424 15.9313L19.2002 15.9313V9.07344L12.3424 9.07344ZM17.4846 10.7844V14.2109L14.058 14.2109V10.7844L17.4846 10.7844ZM3.76894 9.07344L3.76894 15.9313L10.6268 15.9313L10.6268 9.07344L3.76894 9.07344ZM8.91113 10.7844L8.91113 14.2109L5.48457 14.2109L5.48457 10.7844L8.91113 10.7844ZM3.76894 17.6422L3.76894 24.5H10.6268L10.6268 17.6422H3.76894ZM8.91113 19.3578L8.91113 22.7844H5.48457L5.48457 19.3578H8.91113Z" fill="black"/>
</g>
<defs>
<clipPath id="clip0_162_880">
<rect width="24" height="24" fill="white" transform="matrix(0 1 -1 0 24 0.5)"/>
</clipPath>
</defs>
</svg>
