<svg width="45" height="45" viewBox="0 0 45 45" fill="none" xmlns="http://www.w3.org/2000/svg">
<path d="M7.49992 33.75V13.3125L4.59367 7.03124C4.37492 6.56249 4.3593 6.08562 4.5468 5.60062C4.7343 5.11562 5.06243 4.76437 5.53118 4.54687C5.99993 4.32937 6.4768 4.30624 6.9618 4.47749C7.4468 4.64874 7.79805 4.96874 8.01555 5.43749L11.6249 13.2187H33.3749L36.9843 5.43749C37.2031 4.96874 37.5549 4.64062 38.0399 4.45312C38.5249 4.26562 39.0012 4.29687 39.4687 4.54687C39.9374 4.76562 40.2656 5.11749 40.4531 5.60249C40.6406 6.08749 40.6249 6.56374 40.4062 7.03124L37.4999 13.3125V33.75C37.4999 34.7812 37.133 35.6644 36.3993 36.3994C35.6656 37.1344 34.7824 37.5012 33.7499 37.5H11.2499C10.2187 37.5 9.33617 37.1331 8.60243 36.3994C7.86867 35.6656 7.50117 34.7825 7.49992 33.75ZM18.7499 24.375H26.2499C26.7812 24.375 27.2268 24.195 27.5868 23.835C27.9468 23.475 28.1262 23.03 28.1249 22.5C28.1237 21.97 27.9437 21.525 27.5849 21.165C27.2262 20.805 26.7812 20.625 26.2499 20.625H18.7499C18.2187 20.625 17.7737 20.805 17.4149 21.165C17.0562 21.525 16.8762 21.97 16.8749 22.5C16.8737 23.03 17.0537 23.4756 17.4149 23.8369C17.7762 24.1981 18.2212 24.3775 18.7499 24.375ZM11.2499 33.75H33.7499V16.9687H11.2499V33.75Z" fill="#9333EA"/>
</svg>
