<svg width="45" height="45" viewBox="0 0 45 45" fill="none" xmlns="http://www.w3.org/2000/svg">
<path d="M45 6.42857V3.21429H40.1786V0H36.9643V3.21429H35.3571C33.5845 3.21429 32.1429 4.6575 32.1429 6.42857V9.64286C32.1429 11.4155 33.5845 12.8571 35.3571 12.8571H41.7857V16.0714H32.1429V19.2857H36.9643V22.5H40.1786V19.2857H41.7857C43.5584 19.2857 45 17.8441 45 16.0714V12.8571C45 11.0861 43.5584 9.64286 41.7857 9.64286H35.3571V6.42857H45ZM35.3571 28.9286V32.1429H39.5132L33.75 37.9061L30.0664 34.2209C29.7655 33.9199 29.3574 33.7505 28.9318 33.75H28.9286C28.5029 33.7505 28.0949 33.9199 27.7939 34.2209L19.2857 42.7275L21.5582 45L28.9302 37.6296L32.6137 41.3148C32.9151 41.6161 33.3238 41.7854 33.75 41.7854C34.1762 41.7854 34.5849 41.6161 34.8862 41.3148L41.7857 34.4154V38.5714H45V28.9286H35.3571ZM3.21429 45H0V36.9643C0 30.7607 5.04643 25.7143 11.25 25.7143H20.8929C24.0895 25.7143 27.1446 27.0804 29.2773 29.4637L26.8827 31.6077C26.129 30.7648 25.2058 30.0905 24.1737 29.6289C23.1415 29.1672 22.0236 28.9286 20.8929 28.9286H11.25C6.81911 28.9286 3.21429 32.5334 3.21429 36.9643V45ZM16.0714 22.5C19.0551 22.5 21.9166 21.3147 24.0264 19.205C26.1362 17.0952 27.3214 14.2337 27.3214 11.25C27.3214 8.26631 26.1362 5.40483 24.0264 3.29505C21.9166 1.18526 19.0551 0 16.0714 0C13.0877 0 10.2263 1.18526 8.11648 3.29505C6.00669 5.40483 4.82143 8.26631 4.82143 11.25C4.82143 14.2337 6.00669 17.0952 8.11648 19.205C10.2263 21.3147 13.0877 22.5 16.0714 22.5ZM16.0714 3.21429C18.2026 3.21429 20.2465 4.0609 21.7535 5.56789C23.2605 7.07488 24.1071 9.1188 24.1071 11.25C24.1071 13.3812 23.2605 15.4251 21.7535 16.9321C20.2465 18.4391 18.2026 19.2857 16.0714 19.2857C13.9402 19.2857 11.8963 18.4391 10.3893 16.9321C8.88233 15.4251 8.03571 13.3812 8.03571 11.25C8.03571 9.1188 8.88233 7.07488 10.3893 5.56789C11.8963 4.0609 13.9402 3.21429 16.0714 3.21429Z" fill="#059669"/>
</svg>
