<svg width="16" height="16" viewBox="0 0 16 16" fill="none" xmlns="http://www.w3.org/2000/svg">
<path d="M6.66659 11.9997C7.8499 11.9994 8.99912 11.6033 9.93125 10.8743L12.8619 13.805L13.8046 12.8623L10.8739 9.93167C11.6033 8.99945 11.9996 7.84997 11.9999 6.66634C11.9999 3.72567 9.60725 1.33301 6.66659 1.33301C3.72592 1.33301 1.33325 3.72567 1.33325 6.66634C1.33325 9.60701 3.72592 11.9997 6.66659 11.9997ZM6.66659 2.66634C8.87259 2.66634 10.6666 4.46034 10.6666 6.66634C10.6666 8.87234 8.87259 10.6663 6.66659 10.6663C4.46059 10.6663 2.66659 8.87234 2.66659 6.66634C2.66659 4.46034 4.46059 2.66634 6.66659 2.66634Z" fill="#445668"/>
<path d="M7.6078 5.72406C7.86047 5.97739 7.9998 6.31206 7.9998 6.66672H9.33314C9.33373 6.31634 9.26486 5.96932 9.13052 5.64571C8.99618 5.32211 8.79903 5.02834 8.55047 4.78139C7.54114 3.77339 5.79114 3.77339 4.78247 4.78139L5.7238 5.72539C6.23047 5.22006 7.1038 5.22139 7.6078 5.72406Z" fill="#445668"/>
</svg>
