<svg width="36" height="36" viewBox="0 0 36 36" fill="none" xmlns="http://www.w3.org/2000/svg">
<path d="M7.5 28.5H9.147L25.194 12.453L23.547 10.806L7.5 26.853V28.5ZM6 30V26.22L25.77 6.43199C25.925 6.29499 26.095 6.18899 26.28 6.11399C26.465 6.03899 26.6585 6.00099 26.8605 5.99999C27.0625 5.99899 27.2575 6.03099 27.4455 6.09599C27.6355 6.15899 27.8105 6.27299 27.9705 6.43799L29.571 8.04899C29.736 8.20799 29.849 8.38299 29.91 8.57399C29.97 8.76399 30 8.95399 30 9.14399C30 9.34799 29.966 9.54299 29.898 9.72899C29.829 9.91399 29.72 10.0835 29.571 10.2375L9.7785 30H6ZM24.357 11.643L23.547 10.806L25.194 12.453L24.357 11.643Z" fill="black"/>
</svg>
